<svg xmlns="http://www.w3.org/2000/svg" width="52" height="24" viewBox="0 0 52 24" fill="none"><path d="M0 0.514927C1.74794 0.514927 3.49588 0.522317 5.24382 0.508593C5.59424 0.505426 5.72669 0.597271 5.72565 0.975208C5.71626 8.32598 5.71626 15.6757 5.72565 23.0265C5.72565 23.4044 5.59424 23.4963 5.24382 23.4931C3.49588 23.4794 1.74794 23.4868 0 23.4868V0.514927Z" fill="white"></path><path d="M40.503 23.4878C38.8051 23.4878 37.1072 23.4793 35.4093 23.4941C35.0568 23.4973 34.9233 23.4023 34.9275 23.0254C34.9452 21.4524 34.9484 19.8784 34.9265 18.3054C34.9202 17.8947 35.0714 17.8145 35.4417 17.8156C38.3869 17.8282 41.3331 17.8388 44.2784 17.8092C44.8415 17.8039 45.4652 17.862 45.9293 17.3806C46.2599 17.0375 46.4049 16.2003 46.2057 15.7137C46.0054 15.2238 45.4944 14.8871 44.9385 14.8871C43.4482 14.886 41.9558 14.8301 40.4686 14.8987C37.2511 15.0454 34.2673 12.498 33.5279 9.47243C32.7228 6.17762 34.2215 2.95565 37.0071 1.37951C38.001 0.815768 39.1149 0.515952 40.2777 0.514896C43.4138 0.512785 46.5498 0.529676 49.6859 0.500117C50.2376 0.494838 50.345 0.667971 50.3346 1.17998C50.3023 2.70018 50.3065 4.22143 50.3336 5.74162C50.3409 6.18923 50.1938 6.2948 49.7725 6.29269C46.6708 6.27686 43.5692 6.28319 40.4686 6.28425C39.7771 6.28425 39.2515 6.59779 39.0471 7.12563C38.8187 7.71471 39.0189 8.42202 39.5258 8.87069C39.751 9.07021 40.0045 9.11983 40.2923 9.11878C41.7826 9.11244 43.273 9.11455 44.7623 9.11561C47.8629 9.11878 50.3836 10.8839 51.4902 13.7068C52.7427 16.9003 51.607 20.3471 48.9632 22.2547C47.8389 23.0655 46.5498 23.5078 45.1294 23.4909C43.5879 23.4719 42.0455 23.4867 40.503 23.4867V23.4878Z" fill="white"></path><path d="M8.10977 16.9456C8.10977 15.076 8.07639 13.2053 8.11811 11.3357C8.17339 8.85588 9.03797 6.66638 10.5429 4.70807C11.6526 3.26494 13.0762 2.23248 14.6802 1.47555C15.7502 0.970929 16.9089 0.692226 18.1145 0.600381C19.2211 0.515926 20.3245 0.545485 21.4279 0.508536C21.796 0.495868 21.9514 0.580323 21.9462 0.994154C21.9243 2.60197 21.9275 4.20979 21.9441 5.8176C21.9483 6.18921 21.8252 6.30111 21.4665 6.29055C20.7218 6.26838 19.9772 6.29372 19.2325 6.28211C16.6972 6.24305 14.5133 7.92371 13.9856 10.5028C13.8677 11.076 13.8365 11.6767 13.8344 12.2647C13.8208 15.8129 13.8198 19.36 13.8375 22.9082C13.8396 23.3642 13.729 23.5089 13.2618 23.4994C11.7558 23.4688 10.2478 23.4688 8.74074 23.4994C8.25265 23.5099 8.08891 23.3885 8.09621 22.8702C8.12645 20.896 8.10873 18.9208 8.10873 16.9456H8.10977Z" fill="white"></path><path d="M30.8799 12.0283C30.8799 15.662 30.8736 19.2967 30.8882 22.9304C30.8903 23.3537 30.7902 23.5057 30.3449 23.4984C28.7867 23.472 27.2276 23.472 25.6694 23.4984C25.2398 23.5057 25.1532 23.3527 25.1542 22.9557C25.1636 15.6525 25.1647 8.35025 25.1542 1.04699C25.1542 0.647935 25.2429 0.498027 25.6705 0.505417C27.2286 0.530753 28.7878 0.531809 30.3459 0.505417C30.7933 0.498027 30.8903 0.653213 30.8882 1.07443C30.8736 4.72607 30.8799 8.3777 30.8799 12.0283Z" fill="white"></path></svg>