<?xml version="1.0" encoding="UTF-8"?>
<svg xmlns="http://www.w3.org/2000/svg" width="200" height="35" viewBox="0 0 200 35" fill="none">
  <path fill-rule="evenodd" clip-rule="evenodd" d="M117.232 0.103165C115.683 0.223877 114.194 0.565897 113.389 0.948153C112.464 1.41088 111.317 2.55765 110.854 3.50323C110.271 4.69023 110.069 5.65593 110.009 7.62756L109.929 9.37789L108.098 9.41812L106.267 9.43825V11.5708V13.7034L108.098 13.7235L109.929 13.7638L109.969 24.0444L109.989 34.3251H112.645H115.3V24.0243V13.7235H118.057H120.813V11.591V9.45836H118.036H115.26L115.32 7.9897C115.401 5.79676 115.723 5.13284 116.97 4.64999C117.473 4.44881 117.835 4.40857 119.565 4.36833L121.557 4.32809V2.21563V0.123285L121.074 0.0428111C120.431 -0.0376637 118.62 0.00257129 117.232 0.103165Z" fill="white"></path>
  <path fill-rule="evenodd" clip-rule="evenodd" d="M0 17.4457V34.3051H2.77638H5.53264L5.51252 17.4658L5.47229 0.626415L2.73614 0.606295L0 0.586182V17.4457Z" fill="white"></path>
  <path fill-rule="evenodd" clip-rule="evenodd" d="M50.2967 0.606295L47.7216 0.626415V17.4658V34.3051H50.3772H53.0329V31.0057V27.7062L53.898 26.7204C54.3808 26.1973 55.0045 25.473 55.3063 25.131C55.6081 24.8091 55.8294 24.4671 55.8093 24.4067C55.7892 24.3464 55.8294 24.3262 55.8696 24.3464C55.9099 24.3665 56.5335 23.7629 57.2176 22.9783C57.9016 22.1937 58.5052 21.5499 58.5655 21.5499C58.6259 21.5499 60.0946 24.4268 61.8248 27.9275L64.9834 34.3051H67.8805C69.4699 34.3051 70.7776 34.285 70.7776 34.2649C70.7776 34.2246 68.9468 30.5027 66.6935 25.976C64.4402 21.4292 62.6094 17.6871 62.6094 17.6267C62.6094 17.5664 63.6355 16.3794 64.923 14.9912C66.1905 13.603 67.6994 11.9331 68.2829 11.2893C68.8663 10.6455 69.49 9.96149 69.6509 9.76031L69.9728 9.41828H66.9953H63.9775L61.7644 11.8325C60.5573 13.1604 58.304 15.6149 56.775 17.2847C55.246 18.9344 53.7974 20.5842 53.5359 20.9262L53.0731 21.5499L53.0329 11.1083C53.0128 5.35431 52.9725 0.626419 52.9323 0.586182C52.8921 0.6063 51.7051 0.586177 50.2967 0.606295Z" fill="white"></path>
  <path fill-rule="evenodd" clip-rule="evenodd" d="M13.2782 1.89357C13.2178 2.01428 13.1776 3.18116 13.1776 4.93149C13.1776 7.34573 13.1977 7.76822 13.3386 7.90905C13.419 8.00965 13.58 8.07001 13.6403 8.07001C13.7007 8.07001 13.8616 7.98953 13.9421 7.90905C14.083 7.76822 14.1031 7.34573 14.1031 4.93149C14.1031 3.18116 14.0628 2.0344 14.0025 1.89357C13.9421 1.77286 13.7812 1.69238 13.6403 1.69238C13.4995 1.69238 13.3587 1.77286 13.2782 1.89357Z" fill="white"></path>
  <path fill-rule="evenodd" clip-rule="evenodd" d="M141.354 1.81309C141.254 1.91368 141.233 2.73855 141.233 4.89126C141.233 7.72799 141.254 7.8487 141.455 7.94929C141.596 8.02977 141.736 8.02977 141.877 7.94929C142.078 7.8487 142.099 7.72799 142.099 4.89126C142.099 1.85333 142.078 1.69238 141.676 1.69238C141.555 1.69238 141.414 1.75273 141.354 1.81309Z" fill="white"></path>
  <path fill-rule="evenodd" clip-rule="evenodd" d="M11.5683 3.30202C11.4073 3.40261 11.3671 3.62391 11.3671 5.63578C11.3671 7.74825 11.3872 7.86897 11.5884 7.96956C11.7292 8.05003 11.87 8.05003 12.0109 7.96956C12.2121 7.86897 12.2322 7.74825 12.2322 5.6559C12.2322 3.16118 12.1517 2.93988 11.5683 3.30202Z" fill="white"></path>
  <path fill-rule="evenodd" clip-rule="evenodd" d="M15.2098 3.30158C15.1092 3.40217 15.0891 4.04596 15.0891 5.63534C15.0891 7.72769 15.1092 7.8484 15.3104 7.94899C15.4512 8.02947 15.5921 8.02947 15.7329 7.94899C15.9341 7.8484 15.9542 7.72769 15.9542 5.61523C15.9542 3.52288 15.9341 3.38205 15.753 3.28146C15.4714 3.14063 15.3708 3.14063 15.2098 3.30158Z" fill="white"></path>
  <path fill-rule="evenodd" clip-rule="evenodd" d="M139.483 3.34234C139.342 3.48317 139.322 3.84531 139.322 5.61576C139.322 7.38621 139.342 7.74834 139.483 7.88917C139.563 7.98977 139.724 8.05012 139.785 8.05012C139.845 8.05012 140.006 7.96965 140.087 7.88917C140.227 7.74834 140.247 7.38621 140.247 5.61576C140.247 3.84531 140.227 3.48317 140.087 3.34234C140.006 3.24175 139.845 3.1814 139.785 3.1814C139.724 3.1814 139.563 3.26187 139.483 3.34234Z" fill="white"></path>
  <path fill-rule="evenodd" clip-rule="evenodd" d="M143.185 3.34209C143.044 3.48292 143.024 3.84506 143.024 5.6155C143.024 7.38595 143.044 7.74808 143.185 7.88892C143.406 8.13034 143.607 8.11022 143.808 7.82856C143.949 7.62737 143.969 7.225 143.969 5.6155C143.969 4.00601 143.929 3.60363 143.808 3.40245C143.627 3.1409 143.426 3.12078 143.185 3.34209Z" fill="white"></path>
  <path fill-rule="evenodd" clip-rule="evenodd" d="M193.28 6.15857C193.28 6.33964 193.361 6.37987 193.803 6.37987H194.327V7.92901C194.327 9.39768 194.347 9.47815 194.548 9.47815C194.749 9.47815 194.769 9.39768 194.769 7.92901V6.37987H195.292C195.755 6.37987 195.815 6.33964 195.815 6.15857C195.815 5.95738 195.735 5.93726 194.548 5.93726C193.361 5.93726 193.28 5.95738 193.28 6.15857Z" fill="white"></path>
  <path fill-rule="evenodd" clip-rule="evenodd" d="M196.479 7.68803C196.479 9.31765 196.499 9.45847 196.68 9.41823C196.841 9.378 196.882 9.19693 196.922 7.94957C196.982 6.34007 196.902 6.29984 197.706 8.25135C197.968 8.87503 198.209 9.378 198.27 9.39812C198.37 9.43836 199.477 6.92352 199.477 6.66198C199.477 6.60163 199.537 6.56139 199.577 6.56139C199.638 6.56139 199.678 7.10459 199.678 7.98981C199.678 9.19693 199.698 9.41823 199.839 9.41823C199.98 9.41823 200 9.15669 200 7.64779V5.89746L199.718 5.9377C199.457 5.97794 199.376 6.07854 198.893 7.26554C198.592 7.98982 198.33 8.57326 198.29 8.57326C198.25 8.57326 197.988 7.98982 197.686 7.26554C197.183 6.0383 197.143 5.97794 196.821 5.9377L196.499 5.89746V7.68803H196.479Z" fill="white"></path>
  <path fill-rule="evenodd" clip-rule="evenodd" d="M31.8278 9.01579C30.5201 9.23709 28.5887 9.96137 28.7496 10.2028C28.7899 10.2631 28.7295 10.2833 28.6491 10.243C28.4479 10.1626 27.4218 11.2087 27.1603 11.7721C27.0396 12.0336 26.9188 12.1543 26.8786 12.0738C26.8384 12.0135 26.7981 11.4099 26.7981 10.7259L26.8183 9.49864L24.3034 9.4584L21.7886 9.43829V21.8716V34.305H24.5448H27.3011L27.3615 27.2635C27.4218 19.6385 27.4218 19.4373 28.0254 17.5461C28.7496 15.2526 30.2787 13.8443 32.1296 13.7236C33.0752 13.6632 34.2622 13.8845 34.8456 14.2668C35.3888 14.6088 35.932 15.2928 36.2338 16.0171C36.7569 17.2645 36.777 17.6065 36.777 26.2575V34.3251H39.5936H42.4102L42.3499 25.8551C42.2895 16.8621 42.2895 16.8017 41.7463 14.8301C41.2635 13.0999 40.1972 11.3898 39.0102 10.4845C38.3664 9.98149 37.1995 9.43828 36.3143 9.21697C35.5699 8.97555 32.713 8.87495 31.8278 9.01579Z" fill="white"></path>
  <path fill-rule="evenodd" clip-rule="evenodd" d="M91.379 8.99543C91.1778 9.01555 90.4938 9.13626 89.85 9.25697C86.47 9.88065 84.1966 11.3896 83.0901 13.7636C82.6475 14.689 82.3055 15.8358 82.4262 15.9364C82.4664 15.9766 83.4321 16.1376 84.5789 16.2784C85.7256 16.4394 86.7517 16.6003 86.8724 16.6204C87.0736 16.6808 87.1138 16.6204 87.1742 16.3186C87.3955 15.1518 88.321 14.005 89.4677 13.4819C90.6346 12.9588 91.4997 12.7979 93.3506 12.8582C95.1412 12.9186 95.9661 13.0996 96.8312 13.6831C97.9176 14.4074 98.2797 15.2926 98.2797 17.2642V18.5719H97.2537C95.6241 18.5719 92.7068 18.7731 91.379 18.9542C86.6712 19.6181 83.5327 21.3483 82.2853 23.9638C80.8368 26.9816 81.7421 31.0455 84.3375 33.0775C86.3896 34.687 89.689 35.2302 92.7068 34.4657C94.8797 33.8823 96.6702 32.3734 97.817 30.1402C98.2998 29.1745 98.2998 29.1745 98.4809 30.9651C98.6016 32.0112 98.9034 33.4397 99.1247 34.0231L99.2454 34.3249H101.861H104.476L104.416 34.0835C104.154 33.158 103.893 31.5083 103.812 30.3414C103.752 29.597 103.712 25.8951 103.712 22.1531C103.712 16.5802 103.672 15.2121 103.551 14.6086C103.35 13.663 102.967 12.7375 102.827 12.818C102.766 12.8582 102.746 12.8381 102.786 12.7576C102.887 12.5967 102.223 11.7115 101.438 10.9872C99.849 9.53864 97.4548 8.91496 93.6122 8.95519C92.5861 8.95519 91.5802 8.97531 91.379 8.99543ZM98.2596 23.501C98.2194 25.2715 98.1791 25.5129 97.9176 26.2975C97.133 28.5709 95.6844 29.9591 93.5317 30.4621C92.4453 30.7035 90.7553 30.6834 89.85 30.4017C88.0393 29.8384 86.9931 28.0881 87.3351 26.1768C87.6369 24.4466 88.7435 23.32 90.8358 22.6158C92.4855 22.0525 95.0004 21.6903 97.6158 21.6099L98.2797 21.5897L98.2596 23.501Z" fill="white"></path>
  <path fill-rule="evenodd" clip-rule="evenodd" d="M157.69 8.99586C155.397 9.358 153.606 10.203 152.118 11.5912C150.146 13.422 148.979 15.7759 148.396 19.015C148.114 20.5239 148.134 23.3807 148.436 24.9701C149.14 28.8128 150.85 31.7099 153.385 33.3395C155.196 34.5265 157.67 35.0295 160.105 34.7478C162.64 34.446 164.651 33.4602 166.18 31.73C166.382 31.5087 166.543 31.2673 166.543 31.1868C166.543 31.1063 166.583 31.0661 166.623 31.0862C166.663 31.1264 166.744 31.0661 166.824 30.9856C166.905 30.9051 166.925 30.8247 166.885 30.8247C166.844 30.8247 166.905 30.7241 167.005 30.6034C167.408 30.1809 168.192 28.4104 168.575 27.1228C168.776 26.3985 168.937 25.795 168.917 25.7749C168.856 25.7145 164.47 25.292 164.309 25.3323C164.209 25.3524 164.028 25.6541 163.867 26.1571C163.565 27.0423 162.901 28.2092 162.499 28.5915C162.358 28.7323 162.257 28.8933 162.298 28.9536C162.338 29.014 162.338 29.0341 162.277 28.9939C162.217 28.9335 161.352 29.4365 161.171 29.6376C161.131 29.6779 161.05 29.7181 160.95 29.7181C160.869 29.7382 160.587 29.7986 160.306 29.859C160.044 29.9394 159.4 29.9595 158.857 29.9394C158.032 29.8992 157.791 29.859 157.208 29.5773C156.322 29.1347 155.618 28.4305 155.095 27.4246C154.27 25.8553 153.948 24.105 154.049 21.5298C154.21 16.6812 155.839 13.9048 158.737 13.4823C160.085 13.2811 161.573 13.6835 162.438 14.448C163.042 14.9711 163.646 16.0575 163.907 17.1238C164.028 17.6469 164.189 18.0493 164.249 18.0493C164.571 18.0292 168.796 17.4256 168.836 17.3854C168.917 17.3049 168.373 15.2729 168.092 14.5285C167.75 13.6634 167.086 12.5569 166.543 11.9533C164.752 9.88109 162.358 8.89527 159.159 8.93551C158.535 8.93551 157.831 8.97574 157.69 8.99586Z" fill="white"></path>
  <path fill-rule="evenodd" clip-rule="evenodd" d="M179.378 9.07617C175.757 9.61938 173.343 11.0076 172.015 13.2609C171.592 13.9851 171.009 15.6147 171.11 15.8361C171.15 15.9366 171.814 16.0775 173.242 16.2787C174.389 16.4396 175.415 16.6006 175.536 16.6207C175.697 16.6609 175.777 16.5402 175.958 16.0171C176.703 13.784 178.413 12.8384 181.632 12.8384C184.408 12.8384 185.977 13.5224 186.681 15.0514C186.923 15.5745 186.963 15.8159 186.983 17.0834L187.023 18.532L184.649 18.6124C177.869 18.8337 173.946 20.0409 171.834 22.6161C170.768 23.9037 170.285 25.2717 170.285 27.0824C170.265 29.3156 170.949 31.0056 172.437 32.5145C173.162 33.2387 173.524 33.5204 174.248 33.8624C175.978 34.7074 178.091 35.0092 180.163 34.7074C183.201 34.2447 185.132 32.8364 186.541 30.0399L186.943 29.2552L187.023 29.9996C187.184 31.4079 187.426 32.7358 187.647 33.5204L187.868 34.305H190.524C192.999 34.305 193.18 34.2849 193.119 34.1038C192.496 31.9712 192.496 31.9712 192.415 23.1391C192.335 13.9851 192.355 14.2467 191.611 12.8182C191.208 12.0739 190.021 10.6655 189.86 10.7661C189.82 10.8064 189.76 10.746 189.719 10.6655C189.558 10.2431 187.868 9.53889 186.239 9.217C184.891 8.93533 180.847 8.85487 179.378 9.07617ZM186.983 23.4007C186.923 25.3924 186.742 26.2575 186.199 27.344C185.414 28.9132 183.945 30.06 182.275 30.4624C181.37 30.6635 179.519 30.6837 178.755 30.4624C176.28 29.7783 175.214 27.0019 176.542 24.7285C177.648 22.8374 181.048 21.751 186.38 21.6101L187.064 21.59L186.983 23.4007Z" fill="white"></path>
  <path fill-rule="evenodd" clip-rule="evenodd" d="M133.206 9.39801C131.677 9.67967 130.349 10.3838 129.564 11.3294C129.404 11.5306 129.102 11.9732 128.921 12.3353L128.559 12.9993V11.2087V9.43825H126.064H123.569V21.8716V34.305H126.325H129.082L129.142 28.1084C129.182 23.2397 129.222 21.7509 129.363 21.0669C129.806 18.713 130.45 17.2443 131.476 16.2987C132.623 15.2525 133.588 14.8502 135.339 14.7093L136.244 14.6289V11.933V9.23706L135.157 9.25717C134.534 9.25717 133.669 9.31753 133.206 9.39801Z" fill="white"></path>
  <path fill-rule="evenodd" clip-rule="evenodd" d="M10.844 21.8314V34.305H13.6606H16.4772V21.8314V9.33765H13.6606H10.844V21.8314Z" fill="white"></path>
  <path fill-rule="evenodd" clip-rule="evenodd" d="M138.879 21.8314V34.305H141.636H144.412V21.8314V9.33765H141.636H138.879V21.8314Z" fill="white"></path>
</svg>
