<svg xmlns:cc="http://creativecommons.org/ns#" xmlns:dc="http://purl.org/dc/elements/1.1/" xmlns:rdf="http://www.w3.org/1999/02/22-rdf-syntax-ns#" xmlns:svg="http://www.w3.org/2000/svg" xmlns="http://www.w3.org/2000/svg" xmlns:xlink="http://www.w3.org/1999/xlink" id="svg12318" x="0px" y="0px" viewBox="0 0 885.8 295.3" style="enable-background:new 0 0 885.8 295.3;" xml:space="preserve"><style type="text/css">	.st0{fill:#FFFFFF;}</style><g id="g12326" transform="matrix(1.25,0,0,-1.25,40.106966,930.6959)">	<g id="g21214" transform="matrix(4.3505606,0,0,4.3505606,-429.59386,-2148.69)">		<g id="g21206">			<g id="g16282" transform="translate(195.807,640.247)">				<path id="path16284" class="st0" d="M-0.7,8.6c18.7,3.5,26,9.4,27.5,10.5l3.5-5.9C30.4,13.3,18.4,7.6-0.7,8.6"></path>			</g>			<g id="g16286" transform="translate(216.662,621.619)">				<path id="path16288" class="st0" d="M-0.7,8.6C-7.5,1.4-18.2-9.7-25.8-9.7c-10,0,0,18.4,0,18.4C-30.1,3.1-39-9.7-46.2-9.7     c-6.5,0-4.4,4.9-2.4,11.4l3.4,11.3c2.7,9,0.5,5.6-2.2,2.7c-3.6-4-13.1-14-19.6-21c-3.6-3.9-4.7-4.9-6.9-4.9c-3.6,0-2.4,3.1-1,8     c1.1,3.8,4,13.3,4.2,13.9c1.5,5,2,7.3-1,4.1L-94.8-9c-2.1-2.2-4.5-1.9-4.5-1.9c-3.4,0-2.2,4.3-1.9,5.2l5.7,19     c0.2,0.5,1.9,5.3-3.4,1.9c-6-3.8-19-8-23.4-8.7c0,0-3-0.6-3,1.7c0,2.6,1.6,2.8,1.6,2.8c17.4,4,33.7,12.5,33.7,12.5     s4.4,2.2,6,2.2c2.3,0,1.6-2.6,0.5-6.1l-2.7-9c-0.4-1.5-0.8-2.2,3.6,1.7l14.9,13.2c2,1.7,11.9,9.8,8.9-0.2L-63,10.9     c0,0-1.5-4,4.7,1.5l15.8,13.9c2.9,2.5,11.1,7.7,10.6,1.6c-0.1-1.3-0.6-2.8-1.7-6.1l-4.9-16.4C-40.7-2.4-30,8-17,25.8     c3.9,0.1,7.5,0.2,9.8,0.7c-4.4-7.4-12.4-18.4-12-21.6C-18.3-1.5-9,6.1,7.7,20.1c0,0,11.5,10.6,17.8,10.6c3.9,0,8.4-0.8,6.2-9.1     c0,0-0.9-4.4-5.5-4.4c-1.8,0-3.1,2.4-1.4,5.1c2.7,4.5,0.3,4.5,0.3,4.5C17.4,26.8,6,14.1,7,6C8-2.9,25.5,0.7,35.1,12     c0,0,1.3,1.6,2.2-0.1c0.8-1.5,0-2.5,0-2.5C34.9,6.7,9.3-16.9-0.3-8.3C-4.3-4.7-3.7,3.7-0.7,8.6 M-13.4,30.7l8.1,11.2     c0,0,1.1,1.5,4.7,1.5c2.9,0,4.3,0.5,0.6-5.3c-0.8-1.2-0.9-1.4-2.1-3.3C-5.6,33-8.8,32.1-13.4,30.7"></path>			</g>		</g>	</g></g></svg>