<svg xmlns="http://www.w3.org/2000/svg" width="132" height="34" viewBox="0 0 132 34" fill="none"><path d="M109.26 17.7221C109.26 17.2187 109.194 16.7592 109.084 16.2996C108.974 15.862 108.798 15.4681 108.556 15.1398C108.314 14.8116 108.05 14.549 107.698 14.3739C107.368 14.177 106.972 14.0894 106.533 14.0894C106.093 14.0894 105.697 14.177 105.367 14.3739C105.037 14.5709 104.751 14.8116 104.509 15.1398C104.267 15.4681 104.091 15.8401 103.981 16.2996C103.871 16.7373 103.805 17.2187 103.805 17.7221C103.805 18.2254 103.871 18.7068 103.981 19.1445C104.091 19.5821 104.267 19.976 104.487 20.3043C104.707 20.6325 104.993 20.8951 105.345 21.0921C105.675 21.289 106.071 21.3766 106.533 21.3766C106.994 21.3766 107.368 21.289 107.698 21.0921C108.028 20.8951 108.314 20.6325 108.556 20.3043C108.798 19.976 108.974 19.5821 109.084 19.1445C109.216 18.7068 109.26 18.2254 109.26 17.7221ZM112.317 17.7221C112.317 18.5099 112.185 19.2539 111.965 20.0198C111.723 20.7638 111.371 21.4422 110.887 22.0331C110.403 22.6239 109.809 23.1053 109.084 23.4774C108.358 23.8494 107.522 24.0244 106.555 24.0244C105.587 24.0244 104.751 23.8494 104.025 23.4774C103.3 23.1053 102.706 22.6239 102.222 22.0331C101.76 21.4422 101.386 20.7638 101.144 20.0198C100.902 19.2758 100.792 18.5099 100.792 17.7221C100.792 16.9561 100.902 16.1902 101.144 15.4462C101.386 14.7022 101.738 14.0457 102.222 13.4548C102.706 12.864 103.3 12.4044 104.025 12.0324C104.751 11.6823 105.587 11.5072 106.555 11.5072C107.522 11.5072 108.358 11.6823 109.062 12.0324C109.765 12.3825 110.381 12.864 110.865 13.4548C111.349 14.0457 111.701 14.7022 111.943 15.4462C112.185 16.1902 112.317 16.9561 112.317 17.7221ZM128.855 23.7618V16.7373C128.855 15.9495 128.701 15.293 128.415 14.8116C128.107 14.3301 127.558 14.0894 126.744 14.0894C126.502 14.0894 126.282 14.1332 126.04 14.1988C125.798 14.2645 125.578 14.352 125.358 14.4614C125.138 14.5709 124.94 14.6584 124.786 14.7678C124.611 14.8772 124.479 14.9648 124.391 15.0523C124.413 15.2492 124.457 15.4681 124.501 15.7307C124.523 15.9714 124.545 16.2559 124.545 16.5404V23.7618H121.466V16.7373C121.466 16.3653 121.444 16.037 121.378 15.7088C121.312 15.3805 121.224 15.0961 121.07 14.8772C120.916 14.6365 120.718 14.4396 120.476 14.3083C120.234 14.177 119.926 14.0894 119.574 14.0894C119.112 14.0894 118.673 14.2207 118.255 14.4614C117.837 14.7022 117.485 14.9648 117.199 15.2492V23.7618H114.12V11.8136H116.957L117.089 12.7108C117.463 12.3825 117.903 12.0981 118.453 11.8573C119.002 11.6166 119.53 11.5072 120.08 11.5072C120.652 11.5072 121.202 11.5947 121.773 11.7698C122.323 11.9449 122.851 12.2512 123.335 12.667C123.885 12.3388 124.479 12.0543 125.138 11.8355C125.798 11.6166 126.502 11.5072 127.25 11.5072C128.151 11.5072 128.899 11.6166 129.515 11.8573C130.131 12.0981 130.615 12.4263 130.966 12.8421C131.34 13.2798 131.604 13.8049 131.758 14.4396C131.912 15.0742 132 15.7963 132 16.606V23.7618H128.855ZM43.8755 23.8275L38.7952 11.7917H42.1161L45.283 19.7791L48.34 11.7917H51.5069L46.5806 23.8275H43.8755ZM60.326 17.7439C60.326 17.2406 60.26 16.7592 60.15 16.3215C60.0401 15.862 59.8641 15.49 59.6222 15.1617C59.3803 14.8335 59.0944 14.5709 58.7645 14.3958C58.4346 14.1989 58.0387 14.1113 57.5769 14.1113C57.115 14.1113 56.7412 14.1989 56.3893 14.3958C56.0594 14.5928 55.7735 14.8554 55.5316 15.1617C55.2897 15.49 55.1137 15.8839 55.0038 16.3215C54.8938 16.7811 54.8278 17.2406 54.8278 17.7439C54.8278 18.2691 54.8938 18.7506 55.0038 19.1882C55.1137 19.6259 55.2897 20.0198 55.5096 20.3481C55.7295 20.6763 56.0154 20.9389 56.3673 21.1359C56.7192 21.3328 57.115 21.4203 57.5549 21.4203C58.0167 21.4203 58.3906 21.3328 58.7425 21.1359C59.0724 20.9389 59.3583 20.6763 59.6002 20.3481C59.8421 20.0198 60.0181 19.6259 60.128 19.1882C60.282 18.7506 60.326 18.2691 60.326 17.7439ZM63.4049 17.7658C63.4049 18.5536 63.273 19.3195 63.0311 20.0855C62.7892 20.8514 62.4373 21.5297 61.9534 22.1206C61.4696 22.7114 60.8758 23.1929 60.15 23.5649C59.4243 23.9369 58.5666 24.112 57.5989 24.112C56.6312 24.112 55.7735 23.9369 55.0477 23.5649C54.322 23.1929 53.7062 22.7114 53.2443 22.1206C52.7605 21.5297 52.4086 20.8514 52.1667 20.0855C51.9248 19.3195 51.7928 18.5536 51.7928 17.7658C51.7928 16.978 51.9248 16.2121 52.1667 15.4681C52.4086 14.724 52.7605 14.0457 53.2443 13.4548C53.7282 12.864 54.322 12.3825 55.0477 12.0324C55.7735 11.6823 56.6312 11.4853 57.5989 11.4853C58.5666 11.4853 59.4243 11.6604 60.128 12.0324C60.8538 12.3825 61.4476 12.864 61.9314 13.4548C62.4153 14.0457 62.7892 14.724 63.0311 15.4681C63.273 16.2121 63.4049 16.978 63.4049 17.7658ZM72.7518 14.4396C72.158 14.1988 71.5862 14.0894 71.0804 14.0894C70.5526 14.0894 70.0907 14.1989 69.7168 14.3958C69.343 14.5928 69.0131 14.8772 68.7712 15.2055C68.5292 15.5556 68.3313 15.9276 68.1994 16.3653C68.0674 16.7811 68.0014 17.2187 68.0014 17.6783C68.0014 18.1816 68.0454 18.663 68.1554 19.1226C68.2653 19.5821 68.4193 19.976 68.6612 20.3262C68.8811 20.6763 69.167 20.9389 69.5189 21.1577C69.8708 21.3766 70.2667 21.4641 70.7285 21.4641C71.1024 21.4641 71.4982 21.3547 71.8941 21.1577C72.29 20.9389 72.5759 20.6982 72.7518 20.4137V14.4396ZM72.9937 23.8275L72.8618 22.9084C72.5759 23.2148 72.202 23.4992 71.7402 23.74C71.2783 23.9807 70.7285 24.112 70.0907 24.112C69.255 24.112 68.5292 23.9369 67.8915 23.5868C67.2537 23.2366 66.7258 22.7771 66.286 22.1862C65.8461 21.5954 65.5162 20.9389 65.2963 20.173C65.0764 19.4071 64.9664 18.5974 64.9664 17.7658C64.9664 16.978 65.0764 16.2121 65.3183 15.4681C65.5602 14.724 65.9121 14.0457 66.374 13.4548C66.8578 12.864 67.4516 12.3825 68.1554 12.0324C68.8811 11.6823 69.7168 11.4853 70.6845 11.4853C71.3223 11.4853 72.0041 11.5947 72.7298 11.8355V7.17432H75.8528V23.8275H72.9937ZM84.6279 18.1816C84.298 18.2035 83.9461 18.2254 83.5942 18.2691C83.2423 18.3129 82.9124 18.3567 82.5826 18.4223C81.9008 18.5536 81.4389 18.7943 81.175 19.1007C80.9111 19.429 80.7791 19.7791 80.7791 20.173C80.7791 20.5669 80.9331 20.8951 81.219 21.1359C81.5049 21.3766 81.9228 21.5079 82.4726 21.5079C82.8685 21.5079 83.2643 21.4203 83.6382 21.2672C84.0121 21.0921 84.342 20.8951 84.6059 20.6325V18.1816H84.6279ZM84.8698 23.8056L84.7378 22.9084C84.4079 23.2804 83.9681 23.5649 83.4623 23.7837C82.9344 24.0026 82.3626 24.0901 81.7468 24.0901C81.219 24.0901 80.7352 24.0026 80.2513 23.8275C79.7675 23.6524 79.3496 23.4117 78.9758 23.0835C78.6019 22.7552 78.316 22.3613 78.0741 21.8799C77.8541 21.3984 77.7442 20.8733 77.7442 20.2605C77.7442 19.6697 77.8541 19.1226 78.0961 18.6849C78.338 18.2254 78.6459 17.8315 79.0637 17.5251C79.4596 17.2187 79.9214 16.9561 80.4493 16.7592C80.9771 16.5622 81.5269 16.4091 82.0767 16.2996C82.4726 16.2121 82.9124 16.1465 83.3963 16.1027C83.8801 16.0589 84.276 16.0152 84.5839 15.9933V15.8182C84.5839 15.1617 84.4079 14.6803 84.0561 14.3958C83.7042 14.1113 83.2423 13.98 82.6265 13.98C82.2746 13.98 81.9448 14.0238 81.6149 14.1113C81.285 14.1988 80.9991 14.3083 80.7572 14.4177C80.5152 14.549 80.2733 14.6584 80.0974 14.7897C79.8994 14.921 79.7455 15.0304 79.6355 15.1179L78.6019 12.9515C78.7338 12.8421 78.9318 12.6889 79.2177 12.5357C79.5036 12.3607 79.8335 12.2075 80.2293 12.0543C80.6252 11.9011 81.0651 11.7698 81.5709 11.6604C82.0547 11.551 82.6045 11.5072 83.1544 11.5072C83.8141 11.5072 84.4299 11.5947 84.9797 11.7698C85.5296 11.9449 86.0134 12.2294 86.4093 12.6014C86.8051 12.9734 87.135 13.4548 87.355 14.0238C87.5749 14.5927 87.6848 15.293 87.6848 16.1027V23.8494H84.8698V23.8056ZM99.7368 22.7333C99.6269 22.8209 99.4289 22.9303 99.187 23.0835C98.9451 23.2366 98.6152 23.3679 98.2633 23.5211C97.8894 23.6524 97.4496 23.7837 96.9657 23.8713C96.4599 23.9807 95.9101 24.0244 95.2723 24.0244C94.5466 24.0244 93.8428 23.8931 93.161 23.6524C92.4792 23.4117 91.8854 23.0178 91.3796 22.5145C90.8518 22.0112 90.4559 21.3547 90.126 20.5888C89.8181 19.8229 89.6642 18.9038 89.6642 17.8315C89.6642 16.7811 89.8181 15.8401 90.126 15.0523C90.4339 14.2645 90.8298 13.608 91.3356 13.0609C91.8415 12.5357 92.4353 12.1418 93.095 11.8792C93.7548 11.6166 94.4586 11.4853 95.1843 11.4853C95.8881 11.4853 96.4819 11.5729 97.0097 11.7479C97.5376 11.923 97.9774 12.1637 98.3733 12.4263C98.7472 12.6889 99.077 12.9953 99.297 13.3235C99.5169 13.6518 99.7368 13.9581 99.8908 14.2645L97.6035 15.7963C97.3616 15.3587 97.0537 14.9648 96.6798 14.5927C96.306 14.2207 95.8221 14.0238 95.2283 14.0238C94.5686 14.0238 93.9967 14.3083 93.4909 14.8991C93.0071 15.49 92.7651 16.4091 92.7651 17.6345C92.7651 18.8162 93.0071 19.7353 93.5129 20.3699C94.0187 21.0046 94.7445 21.3109 95.6902 21.3109C96.13 21.3109 96.5479 21.2672 96.8998 21.1796C97.2517 21.0921 97.5595 20.9827 97.8235 20.8514C98.0874 20.7201 98.3073 20.5888 98.4832 20.4575C98.6592 20.3262 98.7911 20.2168 98.8791 20.1292L99.7368 22.7333Z" fill="white"></path><path fill-rule="evenodd" clip-rule="evenodd" d="M16.5825 33.5C25.7314 33.5 33.1649 26.1034 33.1649 17C33.1649 10.4004 29.2769 4.71647 23.6638 2.07563C20.6509 2.68848 18.2538 5.48947 18.2538 8.66245C18.2538 8.77187 18.2538 8.88128 18.2758 8.92505C23.3342 10.1505 25.6214 13.1704 25.6214 17.372C25.6654 21.5736 22.3445 26.1691 16.7144 26.191C12.1619 26.2128 7.41147 22.3395 7.38947 16.1247C7.36748 12.0106 9.61073 8.04972 12.4478 5.70821C15.2189 3.41046 19.0236 1.94428 22.4764 1.94428C22.9157 1.94428 23.3769 1.98793 23.6629 2.07524C21.515 1.06481 19.1144 0.5 16.5825 0.5C7.43352 0.5 0 7.89655 0 17C0 26.1034 7.43352 33.5 16.5825 33.5Z" fill="white"></path></svg>