<?xml version="1.0" encoding="utf-8"?>
<!-- Generator: Adobe Illustrator 25.3.0, SVG Export Plug-In . SVG Version: 6.00 Build 0)  -->
<svg version="1.1" id="Layer_1" xmlns="http://www.w3.org/2000/svg" xmlns:xlink="http://www.w3.org/1999/xlink" x="0px" y="0px"
	 viewBox="0 0 1099.2 649.3" style="enable-background:new 0 0 1099.2 649.3;" xml:space="preserve">
<style type="text/css">
	.st0{fill:#FFFFFF;}
</style>
<g id="_x23_ffffffff">
</g>
<g id="_x23_93d301ff">
	<path class="st0" d="M3.9,27.9C14.1,6.2,41.8-5.5,64.4,2.9c11.5,4.2,20.3,13.7,25.3,24.7c33.9,71,67.8,142.1,101.7,213.1
		c36-46,72.3-92.1,114.1-133c34.3-33.4,72.4-64.1,116.5-83.5c34.2-15,72.6-21.8,109.7-15.7c50.1,8.1,97.9,36.3,125.4,79.5
		c6,9.3,11.1,19.8,10.9,31.1c0.3,13.5-7.3,26.2-18,34.1c-10,7.5-22.5,11.8-35,11.2c-7.5-0.4-15.3-3.1-20.5-8.7
		c-2.9-3.2-5.3-6.7-8-10.1c-9.8-12.1-21-23.4-34.2-31.8c-17.9-11.6-40-16.5-61-13.3c-18,2.8-34.9,10.3-50.6,19.4
		c-27.1,16-50.9,36.8-73.4,58.6c-49.7,49.2-92.7,104.7-133.6,161.3c-5.4,7.2-10,15.3-17,21.1c-10.4,8.9-24.1,14-37.8,13.3
		c-13.1-0.4-25.7-7-33.8-17.2c-4.9-5.8-8-12.8-11.3-19.5C90.5,247.6,47.9,157.3,5,67.2C-0.9,55.1-2,40.3,3.9,27.9z"/>
	<path class="st0" d="M747.9,32c7.9-21.4,32-35.6,54.5-31.2c11.4,2.2,21.4,9.5,28.1,18.9c10.2,14.6,20.3,29.2,30.4,43.8
		c41.5-20.9,83.7-40.7,127.7-55.8c11.3-3.5,22.7-8.2,34.7-7.2c13.1,0.7,25.3,8.1,32.7,18.9c9.8,14.1,12.3,33.6,4.8,49.2
		c-5.4,11.7-16.6,19.9-28.8,23.4c-41,11.6-80.4,28.1-118.5,47.2c37.7,54.2,75.4,108.5,113,162.8c6.5,9.9,9.7,22.3,7.1,34
		c-5,24.5-31.3,42.1-55.9,37.5c-12.2-2.1-22.7-10.2-29.4-20.3c-38.8-56-77.7-111.9-116.5-167.9c-65.1,40.7-126.4,87.1-186,135.5
		c-12.9,10.7-26.2,20.8-40.7,29.2c-17.9,10.5-37.6,18.3-58.1,21.8c-37.1,6.3-76.2,1.1-110.3-15.2c-33-15.8-61.1-41.7-79.8-73.1
		c-6.2-10.5-8.9-23.5-5.6-35.4c6-21.3,28.2-35.8,49.9-34.9c11.4,0.4,22.6,6.3,29,15.9c9.7,14.9,21.8,28.5,37,38
		c15.4,9.8,33.8,14.6,52,14c14.3-0.5,28.1-5.4,40.4-12.6c16.3-9.4,30.2-22.3,44.1-34.9c26.5-24.5,55.2-46.6,84.7-67.3
		c29.3-20.4,59.4-39.6,90.1-57.7c-6.4-9.2-12.8-18.5-19.2-27.7c-4-5.8-8.4-11.5-10.9-18.2C744.4,53,744.1,41.8,747.9,32z"/>
	<path class="st0" d="M1057.5,158.7c11.1-2.9,23.8-0.2,32,8c12,11.6,12.9,32.4,2.4,45.3c-9,11.3-25.6,14.7-38.8,9.3
		c-7.8-3.1-14-9.6-16.9-17.4c-3.7-9.8-3.1-21.3,2.1-30.5C1042.3,166,1049.5,160.7,1057.5,158.7 M1061.5,164.8
		c-3.5,0.7-6.8,2.1-9.6,4.2c-11,8-13.4,24.5-6.7,35.9c3.8,6.7,11,11.3,18.6,12c8.2,0.9,16.7-2.6,21.7-9.2
		c7.8-10.1,7.5-25.6-0.9-35.2C1079.1,166,1069.9,163.1,1061.5,164.8z"/>
	<path class="st0" d="M1054.8,171.6c6,0.3,12.4-1,18,1.7c5.3,2.5,6.6,10.1,3,14.5c-1.4,1.8-3.4,2.8-5.3,3.9
		c4.2,5.3,7.6,11.2,10.9,17.1c-2.7,0-5.5,0-8.2,0c-2.7-4.3-5-8.9-7.9-13.1c-0.8-1.3-2.2-1.9-3.5-2.6c-0.2,5.2-0.1,10.4-0.1,15.7
		c-2.3,0-4.7,0-7,0C1054.8,196.5,1054.8,184.1,1054.8,171.6 M1061.9,177.6c0,3.6,0,7.1,0,10.7c2.3-0.3,4.8-0.2,6.8-1.6
		c2.6-1.8,2.8-6.3,0.1-8.1C1066.6,177.3,1064.1,177.7,1061.9,177.6z"/>
	<path class="st0" d="M320.5,435.7c5.7-2,13.1-0.8,16.6,4.5c2.3,3.2,2.2,7.3,1.9,11c-4.1,46.7-8.2,93.3-12.3,140
		c-0.6,8.8,0.6,18.8,7.4,25.1c3.6,3.8,9.8,3.5,12.8,8c5.8,8.4,0,21.3-9.8,23.4c-5.1,1.2-10.2-0.8-14.7-3
		c-10.3-5.1-17.8-14.8-21.4-25.5c-3.3-9.6-4-19.9-3.1-29.9c4.1-46.7,8.2-93.5,12.3-140.2C310.6,443,314.7,437.5,320.5,435.7z"/>
	<path class="st0" d="M66.7,461.4c0.6-6.9,6.5-12.8,13.4-13.4c5.1-0.8,10.9,1,13.7,5.6c1.8,2.8,2.1,6.3,1.7,9.5
		c-0.9,10-1.8,20-2.7,30c7.8,0.1,15.6-0.1,23.4,0.1c4.1,0,8.3,1.7,10.6,5.2c4.7,7.1,1.8,17.8-5.7,21.8c-2.7,1.5-5.9,1.9-9,1.9
		c-7.3,0-14.6,0-21.9,0c-1.8,21.7-3.9,43.3-5.6,65c-0.6,8.3,0.4,17.7,6.7,23.8c6.9,6.4,16.9,7.3,25.8,7.4c4.4-0.2,8.9,1.6,11.3,5.5
		c5.2,8.2,0.2,20.8-9.4,22.9c-6.3,0.9-12.8,0.3-19-0.6c-13.8-2-27.6-8.5-35.5-20.4c-8-11.5-9.6-26-8.7-39.6
		c1.9-21.4,3.7-42.7,5.6-64.1c-5.6,0-12.3,0.8-16.6-3.7c-5.9-6.4-3.9-17.8,3.2-22.5c4.6-3.3,10.6-2.7,16-2.8
		C64.8,482.5,65.7,471.9,66.7,461.4z"/>
	<path class="st0" d="M820.4,508c-2.8-10.1,7.4-20.9,17.6-19.4c4.9,0.8,8.5,4.5,11.8,8c5.7,6.2,9.2,14.2,10.6,22.4
		c10.6-11.6,23.6-21.4,38.8-25.9c11.5-3.4,24.7-3.4,35.2,2.8c9.5,5.4,15.6,15.1,19,25.3c11.3-13,25.6-24,42.3-28.5
		c10.6-2.8,22.6-2.7,32.4,2.6c9.3,4.8,15.8,13.8,19.3,23.6c4.3,12.2,4.9,25.5,3.7,38.4c-2.2,25.7-4.5,51.5-6.8,77.2
		c-0.3,4.6-2.3,9.2-6.1,11.8c-5.7,4.2-14.9,4.3-19.9-1.2c-2.7-2.9-3.2-7.1-2.8-11c2.2-25.7,4.5-51.4,6.8-77
		c0.8-8.9,0.8-18.1-2.4-26.6c-2.2-5.8-7.2-11.2-13.7-11.6c-9.4-0.7-17.8,4.8-24.6,10.6c-12.9,11.6-22,27.3-26.7,44
		c-1.9,18.2-3.2,36.5-4.9,54.7c-0.5,5.1-0.3,10.8-3.7,15c-5.3,7.2-17.8,8.4-23.4,1.1c-2.8-3.5-2.6-8.2-2.2-12.4
		c1.6-18.3,3.2-36.7,4.8-55c0.7-10.9,2.5-21.8,2-32.8c-0.5-7.9-2.1-16.7-8.5-22c-4.7-4-11.5-4-17-2.1c-9.2,3.1-16.8,9.8-23.1,17
		c-8.9,10.6-15.6,23.2-19.1,36.6c-2,20.7-3.6,41.4-5.5,62c-0.5,5.7-4.5,10.8-9.9,12.7c-5,1.6-11.1,1.3-15.1-2.3
		c-3-2.7-4.2-6.9-3.8-10.8c2.4-27.3,4.8-54.5,7.2-81.8c0.8-10.8,2.8-22.5-2.3-32.5C828,515.8,821.8,513.6,820.4,508z"/>
	<path class="st0" d="M176.5,502.5c16.4-11,37.2-14.7,56.5-11.2c13,2.2,25.4,8.9,33.5,19.3c11.4,14.6,15.3,34.3,12.1,52.4
		c-1,6.7-6.8,12.2-13.6,13c-17.9,2.1-35.9,3.9-53.8,5.9c-4.6,0.5-10,1.2-13.9-2c-7.4-5.8-5.9-18.8,1.8-23.7c3.2-2.2,7.1-2.6,10.9-3
		c13.5-1.4,27-3,40.6-4.4c-0.8-8.2-4-16.5-10.3-21.9c-8.1-7-19.5-9-30-7.7c-11.7,1.4-22.7,7.7-30,16.9
		c-8.9,11.2-13.2,25.7-12.6,39.9c0.7,15.5,10.2,30.3,24.1,37.3c15.7,8.2,35.5,6.1,50.1-3.4c3.7-2.6,8.2-4.5,12.8-3.4
		c6.1,1.3,10.6,7.2,10.4,13.4c0.2,5.2-3,10-7.3,12.8c-14,9.4-30.8,14.8-47.7,14.5c-16.1,0-32.3-5.3-45-15.4
		c-14.4-11.3-23.9-28.6-26.1-46.8C135.6,553.7,149.9,520.2,176.5,502.5z"/>
	<path class="st0" d="M394.1,503.2c16.7-11.6,38.2-15.5,58.1-11.8c12.6,2.3,24.6,8.8,32.7,18.9c11.3,14.2,15.3,33.3,12.6,51.1
		c-0.5,4.8-2.9,9.5-7,12.1c-4.1,2.9-9.4,2.8-14.1,3.4c-16.4,1.8-32.8,3.6-49.2,5.4c-4,0.5-8.4,0.3-11.6-2.5
		c-6.5-5.4-5.8-16.5,0.3-21.9c2.7-2.7,6.5-3.8,10.2-4.2c14.3-1.5,28.7-3.2,43-4.6c-0.7-8.3-4-16.7-10.5-22.1
		c-8-6.9-19.2-8.8-29.4-7.6c-11.8,1.3-22.8,7.6-30.2,16.8c-9,11.2-13.4,25.9-12.8,40.2c0.8,15.4,10,30,23.7,37
		c15.9,8.5,36.1,6.4,50.9-3.5c4-2.9,9.5-4.6,14.3-2.6c5.5,2.1,9.1,8.1,8.6,13.9c-0.2,4.7-3.1,9-7,11.5
		c-14.2,9.6-31.3,15.1-48.5,14.7c-18.6-0.1-37.3-7.5-50.4-20.8c-12.4-12.2-19.6-29.2-20.5-46.5C355.8,550.6,369.4,520,394.1,503.2z"
		/>
	<path class="st0" d="M588.6,490.9c17.6-2.5,36.2,0.8,51.3,10.5c3.8,2.4,8,5,9.5,9.5c3.4,10.2-6.8,22-17.4,20.2
		c-3.9-0.6-6.9-3.5-10.2-5.5c-9.5-5.7-21-7.8-31.9-6c-18.3,2.7-34.6,15.5-42.2,32.3c-5.3,11.6-6.3,25.3-1.8,37.4
		c4.7,13.2,16.1,23.8,29.7,27.5c14.4,4.2,30.4,1,42.8-7.3c4.1-2.9,9.6-4.2,14.2-1.9c5.5,2.4,8.7,8.7,7.9,14.5
		c-0.5,4.4-3.3,8.2-6.9,10.6c-13.9,9.4-30.6,14.9-47.5,14.7c-16.9,0.1-33.9-5.6-46.8-16.6c-10.1-8.4-17.7-19.8-21.7-32.3
		c-5.9-18.4-4.2-38.8,3.7-56.3C533.2,515.3,559.3,495,588.6,490.9z"/>
	<path class="st0" d="M724.6,490.9c16.4-2.3,33.7,0.4,48.1,8.7c15.5,8.7,27.2,23.6,32.3,40.5c7.4,24.4,1.4,51.9-14,72.1
		c-16.5,22.2-44,36.4-71.9,35.2c-18.5-0.6-36.8-8.3-49.6-21.7c-9.8-10.2-16.3-23.5-18.6-37.4c-3.4-20.4,1.8-41.9,13.3-58.9
		C677.8,508.8,700.2,494.2,724.6,490.9 M724.5,519.7c-23.1,3.9-42.5,23.9-45.3,47.3c-2.1,15.2,3.8,31.5,15.8,41.2
		c9.9,8.2,23.4,11.8,36.1,10c12-1.6,23.4-7.4,31.9-16.1c10.8-10.6,16.9-25.9,16-41c-0.9-12.6-7.1-25-17.2-32.6
		C751.4,520.3,737.4,517.3,724.5,519.7z"/>
</g>
</svg>
